<svg width="479" height="63" viewBox="0 0 479 63" fill="none" xmlns="http://www.w3.org/2000/svg">
<path d="M5 51.2314V52.2339H10.9401V60.7801H5V61.7827H37.7806V57.9337H33.3316V60.7801H16.7091V57.1485H25.5093V58.6278H28.8826V54.5335H25.5093V56.3142H16.7091V52.2339H23.0648V51.2314H5ZM45.823 51.0911C45.1711 51.0911 44.5681 51.1379 44.014 51.2314C43.4762 51.3248 43.0444 51.451 42.7185 51.61C42.3926 51.7689 42.2296 51.9395 42.2296 52.1217C42.2296 52.3134 42.3926 52.4887 42.7185 52.6475C43.0444 52.8065 43.4762 52.9327 44.014 53.0261C44.5681 53.1196 45.1711 53.1664 45.823 53.1664C46.4585 53.1664 47.0615 53.1173 47.6319 53.0191C48.2023 52.9257 48.6505 52.7995 48.9764 52.6405C49.3186 52.4816 49.4897 52.3087 49.4897 52.1217C49.4897 51.9395 49.3186 51.7689 48.9764 51.61C48.6505 51.451 48.2023 51.3248 47.6319 51.2314C47.0615 51.1379 46.4585 51.0911 45.823 51.0911ZM53.8898 52.2339H59.8299V60.7801H53.8898V61.7827H70.7567V60.7801H65.5988V56.3843C65.7293 56.3984 66.1041 56.4801 66.7234 56.6297C67.359 56.7793 67.7989 56.8891 68.0434 56.9592C68.8908 57.1976 72.1012 58.1838 77.6747 59.9178L80.4125 60.7801H74.8146V61.7827H92.1705V60.7801H86.5726L74.1546 57.0153L88.1859 52.2339H92.4883V51.2314H75.2058V52.2339H80.6569L69.8034 56.1109L65.5988 55.1084V52.2339H70.7567V51.2314H53.8898V52.2339ZM135.854 51C134.859 51 133.955 51.0514 133.14 51.1542C132.341 51.2524 131.665 51.3903 131.112 51.5679C130.59 51.7315 130.117 51.9558 129.694 52.2409C129.269 52.526 128.911 52.8368 128.617 53.1734C128.292 53.5566 128.015 53.9375 127.786 54.3161C127.64 54.5825 127.388 54.8279 127.028 55.0523C126.67 55.2766 126.287 55.4495 125.88 55.5711C125.488 55.6832 125.073 55.7791 124.633 55.8585C124.193 55.938 123.826 55.9894 123.533 56.0128C123.273 56.0314 123.028 56.0408 122.8 56.0408H117.031V52.2339H122.58V51.2314H105.322V52.2339H111.262V60.7801H105.322V61.7827H119.378H120.526C121.603 61.7827 122.499 61.778 123.216 61.7686C123.949 61.7593 124.87 61.7406 125.978 61.7126C127.331 61.6752 128.438 61.6238 129.302 61.5583C130.182 61.4929 131.16 61.3901 132.236 61.2498C133.262 61.1143 134.077 60.9507 134.68 60.7591C135.3 60.5721 135.821 60.3267 136.245 60.0229C136.652 59.7285 136.856 59.3873 136.856 58.9994C136.856 58.1814 135.968 57.5715 134.191 57.1695C133.327 56.9779 132.39 56.8213 131.38 56.6998C130.37 56.583 129.156 56.4825 127.737 56.3984C128.684 56.3423 129.474 56.2651 130.109 56.167C130.744 56.0688 131.283 55.9403 131.722 55.7814C132.13 55.6272 132.455 55.4636 132.701 55.2906C132.961 55.1177 133.23 54.8887 133.507 54.6036C133.719 54.3745 134.02 53.996 134.412 53.4678C134.509 53.3089 134.656 53.1453 134.851 52.9771C135.047 52.8088 135.243 52.6779 135.438 52.5845C135.65 52.4816 135.919 52.3975 136.245 52.3321C136.57 52.2666 136.937 52.2339 137.344 52.2339C139.024 52.2339 139.863 52.6756 139.863 53.559V54.5335H143.163V53.5029C143.163 51.8343 140.726 51 135.854 51ZM120.087 57.0924C122.71 57.0924 124.837 57.1462 126.467 57.2537C128.097 57.3658 129.367 57.5528 130.281 57.8145C131.226 58.0809 131.698 58.4338 131.698 58.8732C131.698 59.2518 131.462 59.5649 130.989 59.8126C130.517 60.0603 129.767 60.2566 128.74 60.4015C127.729 60.5371 126.532 60.6329 125.147 60.689C123.777 60.7497 122.026 60.7801 119.891 60.7801H117.031V57.0924H120.087ZM144.043 51.2314V52.2339H150.056V60.7801H144.043V61.7827H177.288V57.7234H172.863V60.7801H155.801V56.9872H164.918V58.7119H168.169V54.3582H164.918V56.188H155.801V52.2339H172.863V55.2345H177.288V51.2314H144.043ZM196.036 51.0421C194.114 51.0421 192.273 51.0935 190.512 51.1963C188.768 51.2991 187.171 51.451 185.721 51.652C184.239 51.8577 183.073 52.1288 182.225 52.4653C181.378 52.8018 180.954 53.1757 180.954 53.587C180.954 53.8394 181.158 54.0661 181.565 54.2671C181.973 54.4727 182.51 54.6316 183.179 54.7438C183.863 54.8606 184.597 54.9191 185.379 54.9191C186.08 54.9191 186.724 54.863 187.31 54.7508C187.913 54.6433 188.386 54.4984 188.728 54.3161C189.087 54.1385 189.266 53.9516 189.266 53.7553C189.266 53.4561 188.965 53.2224 188.361 53.0542C187.758 52.8859 186.911 52.7808 185.819 52.7387C187.008 52.5003 188.329 52.3204 189.779 52.1988C191.245 52.082 193.063 52.0236 195.23 52.0236C198.881 52.0236 201.528 52.276 203.174 52.7808C204.055 53.0565 204.495 53.386 204.495 53.7693C204.495 54.204 203.989 54.5592 202.979 54.8349C202.523 54.9565 201.871 55.0733 201.024 55.1855C200.176 55.3023 199.239 55.4051 198.212 55.494C197.039 55.5921 195.809 55.6879 194.522 55.7814C191.245 56.0151 188.622 56.2862 186.65 56.5947C184.694 56.9078 183.333 57.2584 182.567 57.6463C181.802 58.0295 181.419 58.4899 181.419 59.0274C181.419 59.5929 182.014 60.1024 183.203 60.5558C184.393 61.0091 186.055 61.362 188.19 61.6144C190.325 61.8715 192.753 62 195.475 62C197.838 62 200.193 61.8925 202.54 61.6775C203.875 61.556 205.025 61.4064 205.986 61.2288C206.947 61.0559 207.729 60.8409 208.333 60.5838C208.952 60.3081 209.261 60.0089 209.261 59.6864C209.261 59.2658 208.887 58.9269 208.137 58.6699C207.404 58.4128 206.394 58.2842 205.106 58.2842C204.373 58.2842 203.688 58.324 203.052 58.4034C202.434 58.4876 201.936 58.6044 201.561 58.754C201.187 58.9082 200.999 59.0812 200.999 59.2728C200.999 59.628 201.317 59.8991 201.953 60.086C202.588 60.273 203.387 60.3665 204.348 60.3665C202.426 60.8011 199.671 61.0185 196.086 61.0185C194.505 61.0185 193.055 60.9507 191.735 60.8152C190.43 60.6843 189.363 60.4903 188.532 60.2333C187.685 59.9715 187.261 59.6654 187.261 59.3149C187.261 59.1372 187.31 58.9877 187.408 58.8662C187.522 58.7446 187.75 58.6184 188.092 58.4876C188.435 58.3474 188.907 58.2188 189.51 58.102C190.129 57.9898 190.969 57.8776 192.027 57.7655C193.071 57.6486 194.342 57.5435 195.841 57.45C200.535 57.1462 204.039 56.7839 206.352 56.3633C207.428 56.167 208.3 55.9426 208.968 55.6902C209.637 55.4379 210.109 55.1761 210.386 54.905C210.631 54.648 210.753 54.3512 210.753 54.0147C210.753 53.3977 210.182 52.8649 209.042 52.4162C207.9 51.9722 206.23 51.631 204.031 51.3926C201.831 51.1589 199.165 51.0421 196.036 51.0421ZM221.288 51.2314V52.2339H226.984V60.7801H217.622V57.5201H213.075V61.7827H246.467V57.5201H241.895V60.7801H232.753V52.2339H238.595V51.2314H221.288ZM242.775 51.2314V52.2339H247.176L260.058 61.7827H265.852L278.929 52.2339H283.036V51.2314H267.22V52.2339H272.671L269.274 54.7648H255.145L251.942 52.2339H258.103V51.2314H242.775ZM256.293 55.6552H268.051L262.014 60.4085L256.293 55.6552ZM298.681 51.0421C296.269 51.0421 294.158 51.1355 292.35 51.3225C290.557 51.5095 289.123 51.7805 288.047 52.1358C285.962 52.8181 284.919 53.7225 284.919 54.849V60.7801H279.638V61.7827H296.066V60.7801H290.663V54.7508C290.663 52.9327 293.515 52.0236 299.219 52.0236C302.022 52.0236 304.149 52.255 305.599 52.7177C307.049 53.1851 307.774 53.8768 307.774 54.7929V60.7801H302.225V61.7827H317.846V60.7801H312.737V55.0663C312.737 54.5708 312.598 54.1315 312.321 53.7482C312.061 53.365 311.612 53.0051 310.976 52.6686C310.325 52.3134 309.47 52.0213 308.41 51.7922C307.367 51.5632 306.031 51.3809 304.401 51.2454C302.739 51.1098 300.832 51.0421 298.681 51.0421ZM349.697 51C348.703 51 347.799 51.0514 346.984 51.1542C346.186 51.2524 345.509 51.3903 344.955 51.5679C344.434 51.7315 343.961 51.9558 343.537 52.2409C343.114 52.526 342.756 52.8368 342.462 53.1734C342.136 53.5566 341.858 53.9375 341.631 54.3161C341.484 54.5825 341.232 54.8279 340.873 55.0523C340.515 55.2766 340.131 55.4495 339.724 55.5711C339.333 55.6832 338.918 55.7791 338.477 55.8585C338.038 55.938 337.67 55.9894 337.377 56.0128C337.116 56.0314 336.872 56.0408 336.644 56.0408H330.874V52.2339H336.424V51.2314H319.166V52.2339H325.106V60.7801H319.166V61.7827H333.221H334.371C335.446 61.7827 336.342 61.778 337.059 61.7686C337.793 61.7593 338.713 61.7406 339.822 61.7126C341.174 61.6752 342.283 61.6238 343.146 61.5583C344.026 61.4929 345.004 61.3901 346.08 61.2498C347.106 61.1143 347.921 60.9507 348.524 60.7591C349.144 60.5721 349.665 60.3267 350.089 60.0229C350.496 59.7285 350.7 59.3873 350.7 58.9994C350.7 58.1814 349.811 57.5715 348.035 57.1695C347.171 56.9779 346.235 56.8213 345.224 56.6998C344.213 56.583 343 56.4825 341.582 56.3984C342.527 56.3423 343.317 56.2651 343.953 56.167C344.589 56.0688 345.126 55.9403 345.566 55.7814C345.974 55.6272 346.3 55.4636 346.544 55.2906C346.805 55.1177 347.074 54.8887 347.35 54.6036C347.563 54.3745 347.864 53.996 348.255 53.4678C348.353 53.3089 348.5 53.1453 348.695 52.9771C348.891 52.8088 349.086 52.6779 349.282 52.5845C349.494 52.4816 349.762 52.3975 350.089 52.3321C350.414 52.2666 350.782 52.2339 351.188 52.2339C352.867 52.2339 353.706 52.6756 353.706 53.559V54.5335H357.006V53.5029C357.006 51.8343 354.57 51 349.697 51ZM333.93 57.0924C336.555 57.0924 338.681 57.1462 340.31 57.2537C341.94 57.3658 343.211 57.5528 344.124 57.8145C345.069 58.0809 345.542 58.4338 345.542 58.8732C345.542 59.2518 345.306 59.5649 344.833 59.8126C344.361 60.0603 343.611 60.2566 342.584 60.4015C341.574 60.5371 340.375 60.6329 338.991 60.689C337.622 60.7497 335.87 60.7801 333.735 60.7801H330.874V57.0924H333.93ZM357.276 51.2314V52.2339H361.675L374.558 61.7827H380.351L393.429 52.2339H397.536V51.2314H381.721V52.2339H387.172L383.773 54.7648H369.644L366.442 52.2339H372.602V51.2314H357.276ZM370.794 55.6552H382.552L376.513 60.4085L370.794 55.6552ZM398.514 51.2314V52.2339H404.405V60.7801H398.514V61.7827H411.714L429.094 53.0962V60.7801H423.13V61.7827H439.361V60.7801H433.763V51.2314H427.237L409.074 60.2894V52.2339H414.672V51.2314H398.514ZM448.821 51.2314V52.2339H454.517V60.7801H445.155V57.5201H440.608V61.7827H474V57.5201H469.428V60.7801H460.286V52.2339H466.128V51.2314H448.821Z" fill="white"/>
<path d="M5.27148 51V47.5088H11.2041V17.748H5.27148V14.2568H38.0107V27.6602H33.5674V17.748H16.9658V30.3945H25.7549V25.2432H29.124V39.501H25.7549V33.2998H16.9658V47.5088H23.3135V51H5.27148ZM46.043 51.4883C45.3919 51.4883 44.7897 51.3255 44.2363 51C43.6992 50.6745 43.2679 50.235 42.9424 49.6816C42.6169 49.1283 42.4541 48.5342 42.4541 47.8994C42.4541 47.2321 42.6169 46.6217 42.9424 46.0684C43.2679 45.515 43.6992 45.0755 44.2363 44.75C44.7897 44.4245 45.3919 44.2617 46.043 44.2617C46.6777 44.2617 47.2799 44.4326 47.8496 44.7744C48.4193 45.0999 48.8669 45.5394 49.1924 46.0928C49.5342 46.6462 49.7051 47.2484 49.7051 47.8994C49.7051 48.5342 49.5342 49.1283 49.1924 49.6816C48.8669 50.235 48.4193 50.6745 47.8496 51C47.2799 51.3255 46.6777 51.4883 46.043 51.4883ZM54.0996 47.5088H60.0322V17.748H54.0996V14.2568H70.9453V17.748H65.7939V33.0557C65.9242 33.0068 66.2985 32.722 66.917 32.2012C67.5518 31.6803 67.9912 31.2979 68.2354 31.0537C69.0817 30.2236 72.2881 26.7894 77.8545 20.751L80.5889 17.748H74.998V14.2568H92.332V17.748H86.7412L74.3389 30.8584L88.3525 47.5088H92.6494V51H75.3887V47.5088H80.833L69.9932 34.0078L65.7939 37.499V47.5088H70.9453V51H54.0996V47.5088ZM135.96 51.8057C134.967 51.8057 134.064 51.6266 133.25 51.2686C132.452 50.9268 131.777 50.4466 131.224 49.8281C130.703 49.2585 130.231 48.4772 129.808 47.4844C129.384 46.4915 129.026 45.4092 128.733 44.2373C128.408 42.9027 128.131 41.5762 127.903 40.2578C127.757 39.3301 127.505 38.4756 127.146 37.6943C126.788 36.9131 126.406 36.3109 125.999 35.8877C125.608 35.4971 125.193 35.1634 124.754 34.8867C124.314 34.61 123.948 34.431 123.655 34.3496C123.395 34.2845 123.151 34.252 122.923 34.252H117.161V47.5088H122.703V51H105.467V47.5088H111.399V17.748H105.467V14.2568H119.505H120.652C121.727 14.2568 122.622 14.2731 123.338 14.3057C124.07 14.3382 124.99 14.4033 126.097 14.501C127.448 14.6312 128.554 14.8102 129.417 15.0381C130.296 15.266 131.272 15.624 132.347 16.1123C133.372 16.5843 134.186 17.154 134.788 17.8213C135.407 18.4723 135.927 19.3268 136.351 20.3848C136.757 21.4102 136.961 22.5983 136.961 23.9492C136.961 26.7975 136.074 28.9215 134.3 30.3213C133.437 30.9886 132.501 31.5339 131.492 31.957C130.483 32.3639 129.271 32.7139 127.854 33.0068C128.799 33.2021 129.588 33.4707 130.223 33.8125C130.857 34.1543 131.395 34.6019 131.834 35.1553C132.241 35.6924 132.566 36.262 132.811 36.8643C133.071 37.4665 133.34 38.264 133.616 39.2568C133.828 40.0544 134.129 41.3727 134.52 43.2119C134.617 43.7653 134.764 44.335 134.959 44.9209C135.154 45.5068 135.35 45.9626 135.545 46.2881C135.757 46.6462 136.025 46.9391 136.351 47.167C136.676 47.3949 137.042 47.5088 137.449 47.5088C139.126 47.5088 139.964 45.9707 139.964 42.8945V39.501H143.26V43.0898C143.26 48.9004 140.826 51.8057 135.96 51.8057ZM120.213 30.5898C122.833 30.5898 124.957 30.4027 126.585 30.0283C128.213 29.6377 129.482 28.9867 130.394 28.0752C131.338 27.1475 131.81 25.9186 131.81 24.3887C131.81 23.0703 131.574 21.9798 131.102 21.1172C130.63 20.2546 129.881 19.571 128.855 19.0664C127.846 18.5944 126.65 18.2607 125.267 18.0654C123.899 17.8538 122.15 17.748 120.018 17.748H117.161V30.5898H120.213ZM144.139 51V47.5088H150.145V17.748H144.139V14.2568H177.342V28.3926H172.923V17.748H155.882V30.9561H164.988V24.9502H168.235V40.1113H164.988V33.7393H155.882V47.5088H172.923V37.0596H177.342V51H144.139ZM196.067 51.6592C194.147 51.6592 192.308 51.4801 190.55 51.1221C188.808 50.764 187.213 50.235 185.765 49.5352C184.284 48.819 183.12 47.875 182.273 46.7031C181.427 45.5312 181.004 44.2292 181.004 42.7969C181.004 41.918 181.207 41.1286 181.614 40.4287C182.021 39.7126 182.558 39.1592 183.226 38.7686C183.909 38.3617 184.642 38.1582 185.423 38.1582C186.123 38.1582 186.766 38.3535 187.352 38.7441C187.954 39.1185 188.426 39.623 188.768 40.2578C189.126 40.8763 189.305 41.5273 189.305 42.2109C189.305 43.2526 189.004 44.0664 188.401 44.6523C187.799 45.2383 186.953 45.6045 185.862 45.751C187.05 46.5811 188.369 47.2077 189.817 47.6309C191.282 48.0378 193.097 48.2412 195.262 48.2412C198.908 48.2412 201.552 47.3623 203.196 45.6045C204.075 44.6442 204.515 43.4967 204.515 42.1621C204.515 40.6484 204.01 39.4115 203.001 38.4512C202.545 38.028 201.894 37.6211 201.048 37.2305C200.201 36.8236 199.266 36.4655 198.24 36.1562C197.068 35.8145 195.84 35.4808 194.554 35.1553C191.282 34.3415 188.662 33.3975 186.692 32.3232C184.739 31.2327 183.38 30.012 182.615 28.6611C181.85 27.3265 181.468 25.7233 181.468 23.8516C181.468 21.8822 182.062 20.1081 183.25 18.5293C184.438 16.9505 186.098 15.7217 188.23 14.8428C190.363 13.9476 192.788 13.5 195.506 13.5C197.866 13.5 200.218 13.8743 202.562 14.623C203.896 15.0462 205.044 15.5671 206.004 16.1855C206.964 16.7878 207.745 17.5365 208.348 18.4316C208.966 19.3919 209.275 20.4336 209.275 21.5566C209.275 23.0215 208.901 24.2015 208.152 25.0967C207.42 25.9919 206.411 26.4395 205.125 26.4395C204.393 26.4395 203.709 26.3011 203.074 26.0244C202.456 25.7314 201.959 25.3245 201.585 24.8037C201.211 24.2666 201.023 23.6644 201.023 22.9971C201.023 21.7601 201.341 20.8161 201.976 20.165C202.61 19.514 203.408 19.1885 204.368 19.1885C202.448 17.6748 199.697 16.918 196.116 16.918C194.537 16.918 193.089 17.154 191.771 17.626C190.468 18.0817 189.402 18.7572 188.572 19.6523C187.726 20.5638 187.303 21.6299 187.303 22.8506C187.303 23.4691 187.352 23.9899 187.449 24.4131C187.563 24.8363 187.791 25.2757 188.133 25.7314C188.475 26.2197 188.947 26.6673 189.549 27.0742C190.167 27.4648 191.006 27.8555 192.063 28.2461C193.105 28.653 194.375 29.0192 195.872 29.3447C200.56 30.4027 204.059 31.6641 206.37 33.1289C207.444 33.8125 208.315 34.5938 208.982 35.4727C209.65 36.3516 210.122 37.263 210.398 38.207C210.643 39.1022 210.765 40.1357 210.765 41.3076C210.765 43.4561 210.195 45.3115 209.056 46.874C207.916 48.4202 206.248 49.6084 204.051 50.4385C201.854 51.2523 199.192 51.6592 196.067 51.6592ZM221.287 51V47.5088H226.976V17.748H217.625V29.1006H213.084V14.2568H246.434V29.1006H241.868V17.748H232.737V47.5088H238.572V51H221.287ZM242.747 51V47.5088H247.142L260.008 14.2568H265.794L278.855 47.5088H282.957V51H267.161V47.5088H272.605L269.212 38.6953H255.101L251.902 47.5088H258.055V51H242.747ZM256.248 35.5947H267.991L261.961 19.042L256.248 35.5947ZM298.582 51.6592C296.173 51.6592 294.065 51.3337 292.259 50.6826C290.468 50.0316 289.036 49.0876 287.962 47.8506C285.879 45.4743 284.837 42.3249 284.837 38.4023V17.748H279.563V14.2568H295.97V17.748H290.574V38.7441C290.574 45.0755 293.423 48.2412 299.119 48.2412C301.919 48.2412 304.043 47.4355 305.491 45.8242C306.94 44.1966 307.664 41.7878 307.664 38.5977V17.748H302.122V14.2568H317.723V17.748H312.62V37.6455C312.62 39.3708 312.482 40.9007 312.205 42.2354C311.945 43.57 311.497 44.8232 310.862 45.9951C310.211 47.2321 309.357 48.2493 308.299 49.0469C307.257 49.8444 305.923 50.4792 304.295 50.9512C302.635 51.4232 300.73 51.6592 298.582 51.6592ZM349.534 51.8057C348.541 51.8057 347.638 51.6266 346.824 51.2686C346.027 50.9268 345.351 50.4466 344.798 49.8281C344.277 49.2585 343.805 48.4772 343.382 47.4844C342.959 46.4915 342.601 45.4092 342.308 44.2373C341.982 42.9027 341.705 41.5762 341.478 40.2578C341.331 39.3301 341.079 38.4756 340.721 37.6943C340.363 36.9131 339.98 36.3109 339.573 35.8877C339.183 35.4971 338.768 35.1634 338.328 34.8867C337.889 34.61 337.522 34.431 337.229 34.3496C336.969 34.2845 336.725 34.252 336.497 34.252H330.735V47.5088H336.277V51H319.041V47.5088H324.974V17.748H319.041V14.2568H333.079H334.227C335.301 14.2568 336.196 14.2731 336.912 14.3057C337.645 14.3382 338.564 14.4033 339.671 14.501C341.022 14.6312 342.129 14.8102 342.991 15.0381C343.87 15.266 344.847 15.624 345.921 16.1123C346.946 16.5843 347.76 17.154 348.362 17.8213C348.981 18.4723 349.502 19.3268 349.925 20.3848C350.332 21.4102 350.535 22.5983 350.535 23.9492C350.535 26.7975 349.648 28.9215 347.874 30.3213C347.011 30.9886 346.076 31.5339 345.066 31.957C344.057 32.3639 342.845 32.7139 341.429 33.0068C342.373 33.2021 343.162 33.4707 343.797 33.8125C344.432 34.1543 344.969 34.6019 345.408 35.1553C345.815 35.6924 346.141 36.262 346.385 36.8643C346.645 37.4665 346.914 38.264 347.19 39.2568C347.402 40.0544 347.703 41.3727 348.094 43.2119C348.191 43.7653 348.338 44.335 348.533 44.9209C348.729 45.5068 348.924 45.9626 349.119 46.2881C349.331 46.6462 349.599 46.9391 349.925 47.167C350.25 47.3949 350.617 47.5088 351.023 47.5088C352.7 47.5088 353.538 45.9707 353.538 42.8945V39.501H356.834V43.0898C356.834 48.9004 354.401 51.8057 349.534 51.8057ZM333.787 30.5898C336.408 30.5898 338.532 30.4027 340.159 30.0283C341.787 29.6377 343.056 28.9867 343.968 28.0752C344.912 27.1475 345.384 25.9186 345.384 24.3887C345.384 23.0703 345.148 21.9798 344.676 21.1172C344.204 20.2546 343.455 19.571 342.43 19.0664C341.421 18.5944 340.224 18.2607 338.841 18.0654C337.474 17.8538 335.724 17.748 333.592 17.748H330.735V30.5898H333.787ZM357.103 51V47.5088H361.497L374.363 14.2568H380.149L393.211 47.5088H397.312V51H381.517V47.5088H386.961L383.567 38.6953H369.456L366.258 47.5088H372.41V51H357.103ZM370.604 35.5947H382.347L376.316 19.042L370.604 35.5947ZM398.289 51V47.5088H404.173V17.748H398.289V14.2568H411.473L428.831 44.5059V17.748H422.874V14.2568H439.085V17.748H433.494V51H426.976L408.836 19.457V47.5088H414.427V51H398.289ZM448.533 51V47.5088H454.222V17.748H444.871V29.1006H440.33V14.2568H473.68V29.1006H469.114V17.748H459.983V47.5088H465.818V51H448.533Z" fill="black"/>
</svg>
